<mxfile host="Electron" modified="2023-06-25T04:11:42.299Z" agent="Mozilla/5.0 (X11; Linux x86_64) AppleWebKit/537.36 (KHTML, like Gecko) draw.io/21.5.0 Chrome/112.0.5615.204 Electron/24.5.1 Safari/537.36" etag="uthXuoGmETVgDvds-vPS" version="21.5.0" type="device">
  <diagram name="Page-1" id="W_ZlbkAk_SPdIS4YtgTd">
    <mxGraphModel dx="974" dy="458" grid="1" gridSize="10" guides="1" tooltips="1" connect="1" arrows="1" fold="1" page="1" pageScale="1" pageWidth="850" pageHeight="1100" math="0" shadow="0">
      <root>
        <mxCell id="0" />
        <mxCell id="1" parent="0" />
        <mxCell id="oXz6qhzBlNLDAhxjQmUj-1" value="Medico" style="whiteSpace=wrap;html=1;align=center;fillColor=#0050ef;strokeColor=#001DBC;fontColor=#ffffff;" parent="1" vertex="1">
          <mxGeometry x="180" y="520" width="100" height="40" as="geometry" />
        </mxCell>
        <mxCell id="YnixlngbY6KtIJRZPj8p-1" value="med_id" style="ellipse;whiteSpace=wrap;html=1;align=center;fontStyle=4;fillColor=#1ba1e2;fontColor=#ffffff;strokeColor=#006EAF;" vertex="1" parent="1">
          <mxGeometry x="170" y="620" width="100" height="40" as="geometry" />
        </mxCell>
        <mxCell id="YnixlngbY6KtIJRZPj8p-10" value="med_matricula" style="ellipse;whiteSpace=wrap;html=1;align=center;fillColor=#d5e8d4;strokeColor=#82b366;" vertex="1" parent="1">
          <mxGeometry x="70" y="610" width="100" height="40" as="geometry" />
        </mxCell>
        <mxCell id="YnixlngbY6KtIJRZPj8p-11" value="med_tipo" style="ellipse;whiteSpace=wrap;html=1;align=center;fillColor=#d5e8d4;strokeColor=#82b366;" vertex="1" parent="1">
          <mxGeometry x="40" y="560" width="100" height="40" as="geometry" />
        </mxCell>
        <mxCell id="YnixlngbY6KtIJRZPj8p-12" value="" style="endArrow=none;html=1;rounded=0;" edge="1" parent="1" source="oXz6qhzBlNLDAhxjQmUj-1" target="YnixlngbY6KtIJRZPj8p-1">
          <mxGeometry relative="1" as="geometry">
            <mxPoint x="320" y="580" as="sourcePoint" />
            <mxPoint x="310" y="620" as="targetPoint" />
          </mxGeometry>
        </mxCell>
        <mxCell id="YnixlngbY6KtIJRZPj8p-21" value="" style="endArrow=none;html=1;rounded=0;" edge="1" parent="1" source="oXz6qhzBlNLDAhxjQmUj-1" target="YnixlngbY6KtIJRZPj8p-10">
          <mxGeometry relative="1" as="geometry">
            <mxPoint x="360" y="615" as="sourcePoint" />
            <mxPoint x="250" y="648" as="targetPoint" />
          </mxGeometry>
        </mxCell>
        <mxCell id="YnixlngbY6KtIJRZPj8p-22" value="" style="endArrow=none;html=1;rounded=0;" edge="1" parent="1" source="oXz6qhzBlNLDAhxjQmUj-1" target="YnixlngbY6KtIJRZPj8p-11">
          <mxGeometry relative="1" as="geometry">
            <mxPoint x="370" y="625" as="sourcePoint" />
            <mxPoint x="260" y="658" as="targetPoint" />
          </mxGeometry>
        </mxCell>
        <mxCell id="YnixlngbY6KtIJRZPj8p-23" value="Persona" style="whiteSpace=wrap;html=1;align=center;fillColor=#0050ef;strokeColor=#001DBC;fontColor=#ffffff;" vertex="1" parent="1">
          <mxGeometry x="180" y="120" width="100" height="40" as="geometry" />
        </mxCell>
        <mxCell id="YnixlngbY6KtIJRZPj8p-24" value="per_id" style="ellipse;whiteSpace=wrap;html=1;align=center;fontStyle=4;fillColor=#1ba1e2;fontColor=#ffffff;strokeColor=#006EAF;" vertex="1" parent="1">
          <mxGeometry x="70" y="210" width="100" height="40" as="geometry" />
        </mxCell>
        <mxCell id="YnixlngbY6KtIJRZPj8p-25" value="per_nombre" style="ellipse;whiteSpace=wrap;html=1;align=center;fillColor=#d5e8d4;strokeColor=#82b366;" vertex="1" parent="1">
          <mxGeometry x="20" y="170" width="100" height="40" as="geometry" />
        </mxCell>
        <mxCell id="YnixlngbY6KtIJRZPj8p-26" value="per_direccion" style="ellipse;whiteSpace=wrap;html=1;align=center;fillColor=#d5e8d4;strokeColor=#82b366;" vertex="1" parent="1">
          <mxGeometry y="120" width="100" height="40" as="geometry" />
        </mxCell>
        <mxCell id="YnixlngbY6KtIJRZPj8p-27" value="per_telefono" style="ellipse;whiteSpace=wrap;html=1;align=center;fillColor=#d5e8d4;strokeColor=#82b366;" vertex="1" parent="1">
          <mxGeometry x="20" y="70" width="100" height="40" as="geometry" />
        </mxCell>
        <mxCell id="YnixlngbY6KtIJRZPj8p-30" value="per_postal" style="ellipse;whiteSpace=wrap;html=1;align=center;fillColor=#d5e8d4;strokeColor=#82b366;" vertex="1" parent="1">
          <mxGeometry x="80" y="30" width="100" height="40" as="geometry" />
        </mxCell>
        <mxCell id="YnixlngbY6KtIJRZPj8p-31" value="per_cedula" style="ellipse;whiteSpace=wrap;html=1;align=center;fillColor=#d5e8d4;strokeColor=#82b366;" vertex="1" parent="1">
          <mxGeometry x="170" width="100" height="40" as="geometry" />
        </mxCell>
        <mxCell id="YnixlngbY6KtIJRZPj8p-32" value="per_seguridad" style="ellipse;whiteSpace=wrap;html=1;align=center;fillColor=#d5e8d4;strokeColor=#82b366;" vertex="1" parent="1">
          <mxGeometry x="270" y="20" width="100" height="40" as="geometry" />
        </mxCell>
        <mxCell id="YnixlngbY6KtIJRZPj8p-35" value="" style="endArrow=none;html=1;rounded=0;" edge="1" parent="1" source="YnixlngbY6KtIJRZPj8p-23" target="YnixlngbY6KtIJRZPj8p-24">
          <mxGeometry relative="1" as="geometry">
            <mxPoint x="210" y="190" as="sourcePoint" />
            <mxPoint x="200" y="230" as="targetPoint" />
          </mxGeometry>
        </mxCell>
        <mxCell id="YnixlngbY6KtIJRZPj8p-36" value="" style="endArrow=none;html=1;rounded=0;" edge="1" parent="1" source="YnixlngbY6KtIJRZPj8p-23" target="YnixlngbY6KtIJRZPj8p-25">
          <mxGeometry relative="1" as="geometry">
            <mxPoint x="150" y="210" as="sourcePoint" />
            <mxPoint x="150" y="260" as="targetPoint" />
          </mxGeometry>
        </mxCell>
        <mxCell id="YnixlngbY6KtIJRZPj8p-37" value="" style="endArrow=none;html=1;rounded=0;" edge="1" parent="1" source="YnixlngbY6KtIJRZPj8p-23" target="YnixlngbY6KtIJRZPj8p-26">
          <mxGeometry relative="1" as="geometry">
            <mxPoint x="225" y="180" as="sourcePoint" />
            <mxPoint x="160" y="270" as="targetPoint" />
          </mxGeometry>
        </mxCell>
        <mxCell id="YnixlngbY6KtIJRZPj8p-38" value="" style="endArrow=none;html=1;rounded=0;" edge="1" parent="1" source="YnixlngbY6KtIJRZPj8p-23" target="YnixlngbY6KtIJRZPj8p-27">
          <mxGeometry relative="1" as="geometry">
            <mxPoint x="190" y="165" as="sourcePoint" />
            <mxPoint x="80" y="198" as="targetPoint" />
          </mxGeometry>
        </mxCell>
        <mxCell id="YnixlngbY6KtIJRZPj8p-41" value="" style="endArrow=none;html=1;rounded=0;" edge="1" parent="1" source="YnixlngbY6KtIJRZPj8p-23" target="YnixlngbY6KtIJRZPj8p-30">
          <mxGeometry relative="1" as="geometry">
            <mxPoint x="220" y="195" as="sourcePoint" />
            <mxPoint x="110" y="228" as="targetPoint" />
          </mxGeometry>
        </mxCell>
        <mxCell id="YnixlngbY6KtIJRZPj8p-42" value="" style="endArrow=none;html=1;rounded=0;" edge="1" parent="1" source="YnixlngbY6KtIJRZPj8p-23" target="YnixlngbY6KtIJRZPj8p-31">
          <mxGeometry relative="1" as="geometry">
            <mxPoint x="230" y="205" as="sourcePoint" />
            <mxPoint x="120" y="238" as="targetPoint" />
          </mxGeometry>
        </mxCell>
        <mxCell id="YnixlngbY6KtIJRZPj8p-43" value="" style="endArrow=none;html=1;rounded=0;" edge="1" parent="1" source="YnixlngbY6KtIJRZPj8p-23" target="YnixlngbY6KtIJRZPj8p-32">
          <mxGeometry relative="1" as="geometry">
            <mxPoint x="240" y="215" as="sourcePoint" />
            <mxPoint x="130" y="248" as="targetPoint" />
          </mxGeometry>
        </mxCell>
        <mxCell id="YnixlngbY6KtIJRZPj8p-46" value="Empleado" style="whiteSpace=wrap;html=1;align=center;fillColor=#0050ef;strokeColor=#001DBC;fontColor=#ffffff;" vertex="1" parent="1">
          <mxGeometry x="180" y="320" width="100" height="40" as="geometry" />
        </mxCell>
        <mxCell id="YnixlngbY6KtIJRZPj8p-47" value="emp_ciudad" style="ellipse;whiteSpace=wrap;html=1;align=center;fillColor=#d5e8d4;strokeColor=#82b366;" vertex="1" parent="1">
          <mxGeometry x="40" y="350" width="100" height="40" as="geometry" />
        </mxCell>
        <mxCell id="YnixlngbY6KtIJRZPj8p-48" value="emp_depto" style="ellipse;whiteSpace=wrap;html=1;align=center;fillColor=#d5e8d4;strokeColor=#82b366;" vertex="1" parent="1">
          <mxGeometry x="40" y="300" width="100" height="40" as="geometry" />
        </mxCell>
        <mxCell id="YnixlngbY6KtIJRZPj8p-49" value="" style="endArrow=none;html=1;rounded=0;" edge="1" parent="1" source="YnixlngbY6KtIJRZPj8p-46" target="YnixlngbY6KtIJRZPj8p-47">
          <mxGeometry relative="1" as="geometry">
            <mxPoint x="220" y="495" as="sourcePoint" />
            <mxPoint x="110" y="528" as="targetPoint" />
          </mxGeometry>
        </mxCell>
        <mxCell id="YnixlngbY6KtIJRZPj8p-50" value="" style="endArrow=none;html=1;rounded=0;" edge="1" parent="1" source="YnixlngbY6KtIJRZPj8p-46" target="YnixlngbY6KtIJRZPj8p-48">
          <mxGeometry relative="1" as="geometry">
            <mxPoint x="220" y="410" as="sourcePoint" />
            <mxPoint x="120" y="538" as="targetPoint" />
          </mxGeometry>
        </mxCell>
        <mxCell id="YnixlngbY6KtIJRZPj8p-51" value="emp_id" style="ellipse;whiteSpace=wrap;html=1;align=center;fontStyle=4;fillColor=#1ba1e2;fontColor=#ffffff;strokeColor=#006EAF;" vertex="1" parent="1">
          <mxGeometry x="70" y="400" width="100" height="40" as="geometry" />
        </mxCell>
        <mxCell id="YnixlngbY6KtIJRZPj8p-52" value="" style="endArrow=none;html=1;rounded=0;" edge="1" parent="1" source="YnixlngbY6KtIJRZPj8p-46" target="YnixlngbY6KtIJRZPj8p-51">
          <mxGeometry relative="1" as="geometry">
            <mxPoint x="370" y="240" as="sourcePoint" />
            <mxPoint x="530" y="240" as="targetPoint" />
          </mxGeometry>
        </mxCell>
        <mxCell id="YnixlngbY6KtIJRZPj8p-53" value="Paciente" style="whiteSpace=wrap;html=1;align=center;fillColor=#0050ef;strokeColor=#001DBC;fontColor=#ffffff;" vertex="1" parent="1">
          <mxGeometry x="520" y="120" width="100" height="40" as="geometry" />
        </mxCell>
        <mxCell id="YnixlngbY6KtIJRZPj8p-54" value="pac_id" style="ellipse;whiteSpace=wrap;html=1;align=center;fontStyle=4;fillColor=#1ba1e2;fontColor=#ffffff;strokeColor=#006EAF;" vertex="1" parent="1">
          <mxGeometry x="520" y="20" width="100" height="40" as="geometry" />
        </mxCell>
        <mxCell id="YnixlngbY6KtIJRZPj8p-55" value="" style="endArrow=none;html=1;rounded=0;" edge="1" parent="1" source="YnixlngbY6KtIJRZPj8p-54" target="YnixlngbY6KtIJRZPj8p-53">
          <mxGeometry relative="1" as="geometry">
            <mxPoint x="370" y="200" as="sourcePoint" />
            <mxPoint x="530" y="200" as="targetPoint" />
          </mxGeometry>
        </mxCell>
        <mxCell id="YnixlngbY6KtIJRZPj8p-60" value="es" style="strokeWidth=2;html=1;shape=mxgraph.flowchart.merge_or_storage;whiteSpace=wrap;fillColor=#fad9d5;strokeColor=#ae4132;" vertex="1" parent="1">
          <mxGeometry x="205" y="230" width="50" height="30" as="geometry" />
        </mxCell>
        <mxCell id="YnixlngbY6KtIJRZPj8p-61" value="es" style="strokeWidth=2;html=1;shape=mxgraph.flowchart.merge_or_storage;whiteSpace=wrap;fillColor=#fad9d5;strokeColor=#ae4132;" vertex="1" parent="1">
          <mxGeometry x="205" y="430" width="50" height="30" as="geometry" />
        </mxCell>
        <mxCell id="YnixlngbY6KtIJRZPj8p-62" value="" style="endArrow=none;html=1;rounded=0;" edge="1" parent="1" source="YnixlngbY6KtIJRZPj8p-23" target="YnixlngbY6KtIJRZPj8p-60">
          <mxGeometry relative="1" as="geometry">
            <mxPoint x="370" y="320" as="sourcePoint" />
            <mxPoint x="530" y="320" as="targetPoint" />
          </mxGeometry>
        </mxCell>
        <mxCell id="YnixlngbY6KtIJRZPj8p-64" value="" style="endArrow=none;html=1;rounded=0;exitX=0.5;exitY=1;exitDx=0;exitDy=0;exitPerimeter=0;" edge="1" parent="1" source="YnixlngbY6KtIJRZPj8p-60" target="YnixlngbY6KtIJRZPj8p-46">
          <mxGeometry relative="1" as="geometry">
            <mxPoint x="230" y="280" as="sourcePoint" />
            <mxPoint x="530" y="360" as="targetPoint" />
          </mxGeometry>
        </mxCell>
        <mxCell id="YnixlngbY6KtIJRZPj8p-65" value="" style="endArrow=none;html=1;rounded=0;" edge="1" parent="1" source="YnixlngbY6KtIJRZPj8p-46" target="YnixlngbY6KtIJRZPj8p-61">
          <mxGeometry relative="1" as="geometry">
            <mxPoint x="250" y="220" as="sourcePoint" />
            <mxPoint x="250" y="270" as="targetPoint" />
          </mxGeometry>
        </mxCell>
        <mxCell id="YnixlngbY6KtIJRZPj8p-66" value="" style="endArrow=none;html=1;rounded=0;" edge="1" parent="1" source="oXz6qhzBlNLDAhxjQmUj-1" target="YnixlngbY6KtIJRZPj8p-61">
          <mxGeometry relative="1" as="geometry">
            <mxPoint x="260" y="230" as="sourcePoint" />
            <mxPoint x="260" y="280" as="targetPoint" />
          </mxGeometry>
        </mxCell>
        <mxCell id="YnixlngbY6KtIJRZPj8p-67" value="es" style="strokeWidth=2;html=1;shape=mxgraph.flowchart.merge_or_storage;whiteSpace=wrap;rotation=-90;fillColor=#fad9d5;strokeColor=#ae4132;" vertex="1" parent="1">
          <mxGeometry x="375" y="125" width="50" height="30" as="geometry" />
        </mxCell>
        <mxCell id="YnixlngbY6KtIJRZPj8p-68" value="" style="endArrow=none;html=1;rounded=0;" edge="1" parent="1" source="YnixlngbY6KtIJRZPj8p-23" target="YnixlngbY6KtIJRZPj8p-67">
          <mxGeometry relative="1" as="geometry">
            <mxPoint x="240" y="170" as="sourcePoint" />
            <mxPoint x="240" y="220" as="targetPoint" />
          </mxGeometry>
        </mxCell>
        <mxCell id="YnixlngbY6KtIJRZPj8p-69" value="" style="endArrow=none;html=1;rounded=0;" edge="1" parent="1" source="YnixlngbY6KtIJRZPj8p-67" target="YnixlngbY6KtIJRZPj8p-53">
          <mxGeometry relative="1" as="geometry">
            <mxPoint x="250" y="180" as="sourcePoint" />
            <mxPoint x="250" y="230" as="targetPoint" />
          </mxGeometry>
        </mxCell>
        <mxCell id="YnixlngbY6KtIJRZPj8p-70" value="Horario" style="whiteSpace=wrap;html=1;align=center;fillColor=#0050ef;strokeColor=#001DBC;fontColor=#ffffff;" vertex="1" parent="1">
          <mxGeometry x="350" y="680" width="100" height="40" as="geometry" />
        </mxCell>
        <mxCell id="YnixlngbY6KtIJRZPj8p-71" value="hor_semana" style="ellipse;whiteSpace=wrap;html=1;align=center;fillColor=#d5e8d4;strokeColor=#82b366;" vertex="1" parent="1">
          <mxGeometry x="295" y="770" width="100" height="40" as="geometry" />
        </mxCell>
        <mxCell id="YnixlngbY6KtIJRZPj8p-72" value="hor_id" style="ellipse;whiteSpace=wrap;html=1;align=center;fontStyle=4;fillColor=#1ba1e2;fontColor=#ffffff;strokeColor=#006EAF;" vertex="1" parent="1">
          <mxGeometry x="210" y="740" width="100" height="40" as="geometry" />
        </mxCell>
        <mxCell id="YnixlngbY6KtIJRZPj8p-73" value="hor_inicio" style="ellipse;whiteSpace=wrap;html=1;align=center;fillColor=#d5e8d4;strokeColor=#82b366;" vertex="1" parent="1">
          <mxGeometry x="405" y="770" width="100" height="40" as="geometry" />
        </mxCell>
        <mxCell id="YnixlngbY6KtIJRZPj8p-74" value="hor_fin" style="ellipse;whiteSpace=wrap;html=1;align=center;fillColor=#d5e8d4;strokeColor=#82b366;" vertex="1" parent="1">
          <mxGeometry x="490" y="740" width="100" height="40" as="geometry" />
        </mxCell>
        <mxCell id="YnixlngbY6KtIJRZPj8p-75" value="" style="endArrow=none;html=1;rounded=0;" edge="1" parent="1" source="YnixlngbY6KtIJRZPj8p-72" target="YnixlngbY6KtIJRZPj8p-70">
          <mxGeometry relative="1" as="geometry">
            <mxPoint x="480" y="820" as="sourcePoint" />
            <mxPoint x="640" y="820" as="targetPoint" />
          </mxGeometry>
        </mxCell>
        <mxCell id="YnixlngbY6KtIJRZPj8p-76" value="" style="endArrow=none;html=1;rounded=0;" edge="1" parent="1" source="YnixlngbY6KtIJRZPj8p-71" target="YnixlngbY6KtIJRZPj8p-70">
          <mxGeometry relative="1" as="geometry">
            <mxPoint x="657" y="789" as="sourcePoint" />
            <mxPoint x="623" y="840" as="targetPoint" />
          </mxGeometry>
        </mxCell>
        <mxCell id="YnixlngbY6KtIJRZPj8p-77" value="" style="endArrow=none;html=1;rounded=0;" edge="1" parent="1" source="YnixlngbY6KtIJRZPj8p-73" target="YnixlngbY6KtIJRZPj8p-70">
          <mxGeometry relative="1" as="geometry">
            <mxPoint x="667" y="799" as="sourcePoint" />
            <mxPoint x="633" y="850" as="targetPoint" />
          </mxGeometry>
        </mxCell>
        <mxCell id="YnixlngbY6KtIJRZPj8p-78" value="" style="endArrow=none;html=1;rounded=0;" edge="1" parent="1" source="YnixlngbY6KtIJRZPj8p-74" target="YnixlngbY6KtIJRZPj8p-70">
          <mxGeometry relative="1" as="geometry">
            <mxPoint x="677" y="809" as="sourcePoint" />
            <mxPoint x="643" y="860" as="targetPoint" />
          </mxGeometry>
        </mxCell>
        <mxCell id="YnixlngbY6KtIJRZPj8p-79" value="Sustitución" style="whiteSpace=wrap;html=1;align=center;fillColor=#0050ef;strokeColor=#001DBC;fontColor=#ffffff;" vertex="1" parent="1">
          <mxGeometry x="520" y="520" width="100" height="40" as="geometry" />
        </mxCell>
        <mxCell id="YnixlngbY6KtIJRZPj8p-81" value="sus_id" style="ellipse;whiteSpace=wrap;html=1;align=center;fontStyle=4;fillColor=#1ba1e2;fontColor=#ffffff;strokeColor=#006EAF;" vertex="1" parent="1">
          <mxGeometry x="640" y="580" width="100" height="40" as="geometry" />
        </mxCell>
        <mxCell id="YnixlngbY6KtIJRZPj8p-82" value="sus_alta" style="ellipse;whiteSpace=wrap;html=1;align=center;fillColor=#d5e8d4;strokeColor=#82b366;" vertex="1" parent="1">
          <mxGeometry x="670" y="480" width="100" height="40" as="geometry" />
        </mxCell>
        <mxCell id="YnixlngbY6KtIJRZPj8p-83" value="sus_baja" style="ellipse;whiteSpace=wrap;html=1;align=center;fillColor=#d5e8d4;strokeColor=#82b366;" vertex="1" parent="1">
          <mxGeometry x="680" y="530" width="100" height="40" as="geometry" />
        </mxCell>
        <mxCell id="YnixlngbY6KtIJRZPj8p-84" value="" style="endArrow=none;html=1;rounded=0;" edge="1" parent="1" source="YnixlngbY6KtIJRZPj8p-81" target="YnixlngbY6KtIJRZPj8p-79">
          <mxGeometry relative="1" as="geometry">
            <mxPoint x="450" y="510" as="sourcePoint" />
            <mxPoint x="610" y="510" as="targetPoint" />
          </mxGeometry>
        </mxCell>
        <mxCell id="YnixlngbY6KtIJRZPj8p-86" value="" style="endArrow=none;html=1;rounded=0;" edge="1" parent="1" source="YnixlngbY6KtIJRZPj8p-82" target="YnixlngbY6KtIJRZPj8p-79">
          <mxGeometry relative="1" as="geometry">
            <mxPoint x="678.197604458147" y="510.9731288297364" as="sourcePoint" />
            <mxPoint x="603" y="540" as="targetPoint" />
          </mxGeometry>
        </mxCell>
        <mxCell id="YnixlngbY6KtIJRZPj8p-87" value="" style="endArrow=none;html=1;rounded=0;" edge="1" parent="1" source="YnixlngbY6KtIJRZPj8p-83" target="YnixlngbY6KtIJRZPj8p-79">
          <mxGeometry relative="1" as="geometry">
            <mxPoint x="647" y="499" as="sourcePoint" />
            <mxPoint x="613" y="550" as="targetPoint" />
          </mxGeometry>
        </mxCell>
        <mxCell id="YnixlngbY6KtIJRZPj8p-88" value="Descanso" style="whiteSpace=wrap;html=1;align=center;fillColor=#0050ef;strokeColor=#001DBC;fontColor=#ffffff;" vertex="1" parent="1">
          <mxGeometry x="520" y="320" width="100" height="40" as="geometry" />
        </mxCell>
        <mxCell id="YnixlngbY6KtIJRZPj8p-89" value="des_id" style="ellipse;whiteSpace=wrap;html=1;align=center;fontStyle=4;fillColor=#1ba1e2;fontColor=#ffffff;strokeColor=#006EAF;" vertex="1" parent="1">
          <mxGeometry x="660" y="330" width="100" height="40" as="geometry" />
        </mxCell>
        <mxCell id="YnixlngbY6KtIJRZPj8p-90" value="des_inicio" style="ellipse;whiteSpace=wrap;html=1;align=center;fillColor=#d5e8d4;strokeColor=#82b366;" vertex="1" parent="1">
          <mxGeometry x="660" y="280" width="100" height="40" as="geometry" />
        </mxCell>
        <mxCell id="YnixlngbY6KtIJRZPj8p-91" value="des_final" style="ellipse;whiteSpace=wrap;html=1;align=center;fillColor=#d5e8d4;strokeColor=#82b366;" vertex="1" parent="1">
          <mxGeometry x="590" y="245" width="100" height="40" as="geometry" />
        </mxCell>
        <mxCell id="YnixlngbY6KtIJRZPj8p-93" value="" style="endArrow=none;html=1;rounded=0;" edge="1" parent="1" source="YnixlngbY6KtIJRZPj8p-88" target="YnixlngbY6KtIJRZPj8p-89">
          <mxGeometry relative="1" as="geometry">
            <mxPoint x="580" y="350" as="sourcePoint" />
            <mxPoint x="740" y="350" as="targetPoint" />
          </mxGeometry>
        </mxCell>
        <mxCell id="YnixlngbY6KtIJRZPj8p-94" value="" style="endArrow=none;html=1;rounded=0;" edge="1" parent="1" source="YnixlngbY6KtIJRZPj8p-88" target="YnixlngbY6KtIJRZPj8p-90">
          <mxGeometry relative="1" as="geometry">
            <mxPoint x="547" y="370" as="sourcePoint" />
            <mxPoint x="508" y="393" as="targetPoint" />
          </mxGeometry>
        </mxCell>
        <mxCell id="YnixlngbY6KtIJRZPj8p-95" value="" style="endArrow=none;html=1;rounded=0;" edge="1" parent="1" source="YnixlngbY6KtIJRZPj8p-88" target="YnixlngbY6KtIJRZPj8p-91">
          <mxGeometry relative="1" as="geometry">
            <mxPoint x="557" y="380" as="sourcePoint" />
            <mxPoint x="518" y="403" as="targetPoint" />
          </mxGeometry>
        </mxCell>
        <mxCell id="YnixlngbY6KtIJRZPj8p-96" value="tiene" style="shape=rhombus;perimeter=rhombusPerimeter;whiteSpace=wrap;html=1;align=center;fillColor=#d0cee2;strokeColor=#56517e;" vertex="1" parent="1">
          <mxGeometry x="365" y="520" width="70" height="40" as="geometry" />
        </mxCell>
        <mxCell id="YnixlngbY6KtIJRZPj8p-97" value="tiene" style="shape=rhombus;perimeter=rhombusPerimeter;whiteSpace=wrap;html=1;align=center;fillColor=#d0cee2;strokeColor=#56517e;" vertex="1" parent="1">
          <mxGeometry x="365" y="320" width="70" height="40" as="geometry" />
        </mxCell>
        <mxCell id="YnixlngbY6KtIJRZPj8p-98" value="tiene" style="shape=rhombus;perimeter=rhombusPerimeter;whiteSpace=wrap;html=1;align=center;fillColor=#d0cee2;strokeColor=#56517e;" vertex="1" parent="1">
          <mxGeometry x="275" y="600" width="70" height="40" as="geometry" />
        </mxCell>
        <mxCell id="YnixlngbY6KtIJRZPj8p-99" value="" style="endArrow=none;html=1;rounded=0;" edge="1" parent="1" source="oXz6qhzBlNLDAhxjQmUj-1" target="YnixlngbY6KtIJRZPj8p-98">
          <mxGeometry relative="1" as="geometry">
            <mxPoint x="550" y="570" as="sourcePoint" />
            <mxPoint x="710" y="570" as="targetPoint" />
          </mxGeometry>
        </mxCell>
        <mxCell id="YnixlngbY6KtIJRZPj8p-125" value="1" style="edgeLabel;html=1;align=center;verticalAlign=middle;resizable=0;points=[];" vertex="1" connectable="0" parent="YnixlngbY6KtIJRZPj8p-99">
          <mxGeometry x="-0.4161" y="-3" relative="1" as="geometry">
            <mxPoint x="-14" y="-1" as="offset" />
          </mxGeometry>
        </mxCell>
        <mxCell id="YnixlngbY6KtIJRZPj8p-101" value="" style="endArrow=none;html=1;rounded=0;" edge="1" parent="1" source="YnixlngbY6KtIJRZPj8p-98" target="YnixlngbY6KtIJRZPj8p-70">
          <mxGeometry relative="1" as="geometry">
            <mxPoint x="550" y="490" as="sourcePoint" />
            <mxPoint x="710" y="490" as="targetPoint" />
          </mxGeometry>
        </mxCell>
        <mxCell id="YnixlngbY6KtIJRZPj8p-126" value="1" style="edgeLabel;html=1;align=center;verticalAlign=middle;resizable=0;points=[];" vertex="1" connectable="0" parent="YnixlngbY6KtIJRZPj8p-101">
          <mxGeometry x="0.5431" relative="1" as="geometry">
            <mxPoint x="13" y="-3" as="offset" />
          </mxGeometry>
        </mxCell>
        <mxCell id="YnixlngbY6KtIJRZPj8p-102" value="" style="endArrow=none;html=1;rounded=0;" edge="1" parent="1" source="oXz6qhzBlNLDAhxjQmUj-1" target="YnixlngbY6KtIJRZPj8p-96">
          <mxGeometry relative="1" as="geometry">
            <mxPoint x="319" y="629" as="sourcePoint" />
            <mxPoint x="366" y="650" as="targetPoint" />
          </mxGeometry>
        </mxCell>
        <mxCell id="YnixlngbY6KtIJRZPj8p-121" value="1" style="edgeLabel;html=1;align=center;verticalAlign=middle;resizable=0;points=[];" vertex="1" connectable="0" parent="YnixlngbY6KtIJRZPj8p-102">
          <mxGeometry x="-0.5155" y="-1" relative="1" as="geometry">
            <mxPoint x="-11" y="-11" as="offset" />
          </mxGeometry>
        </mxCell>
        <mxCell id="YnixlngbY6KtIJRZPj8p-103" value="" style="endArrow=none;html=1;rounded=0;" edge="1" parent="1" source="YnixlngbY6KtIJRZPj8p-96" target="YnixlngbY6KtIJRZPj8p-79">
          <mxGeometry relative="1" as="geometry">
            <mxPoint x="329" y="639" as="sourcePoint" />
            <mxPoint x="376" y="660" as="targetPoint" />
          </mxGeometry>
        </mxCell>
        <mxCell id="YnixlngbY6KtIJRZPj8p-122" value="N" style="edgeLabel;html=1;align=center;verticalAlign=middle;resizable=0;points=[];" vertex="1" connectable="0" parent="YnixlngbY6KtIJRZPj8p-103">
          <mxGeometry x="0.5259" y="1" relative="1" as="geometry">
            <mxPoint x="10" y="-9" as="offset" />
          </mxGeometry>
        </mxCell>
        <mxCell id="YnixlngbY6KtIJRZPj8p-104" value="" style="endArrow=none;html=1;rounded=0;" edge="1" parent="1" source="YnixlngbY6KtIJRZPj8p-46" target="YnixlngbY6KtIJRZPj8p-97">
          <mxGeometry relative="1" as="geometry">
            <mxPoint x="339" y="609" as="sourcePoint" />
            <mxPoint x="386" y="630" as="targetPoint" />
          </mxGeometry>
        </mxCell>
        <mxCell id="YnixlngbY6KtIJRZPj8p-117" value="1" style="edgeLabel;html=1;align=center;verticalAlign=middle;resizable=0;points=[];" vertex="1" connectable="0" parent="YnixlngbY6KtIJRZPj8p-104">
          <mxGeometry x="-0.4477" y="-1" relative="1" as="geometry">
            <mxPoint x="-15" y="-11" as="offset" />
          </mxGeometry>
        </mxCell>
        <mxCell id="YnixlngbY6KtIJRZPj8p-105" value="" style="endArrow=none;html=1;rounded=0;" edge="1" parent="1" source="YnixlngbY6KtIJRZPj8p-97" target="YnixlngbY6KtIJRZPj8p-88">
          <mxGeometry relative="1" as="geometry">
            <mxPoint x="349" y="619" as="sourcePoint" />
            <mxPoint x="396" y="640" as="targetPoint" />
          </mxGeometry>
        </mxCell>
        <mxCell id="YnixlngbY6KtIJRZPj8p-120" value="1" style="edgeLabel;html=1;align=center;verticalAlign=middle;resizable=0;points=[];" vertex="1" connectable="0" parent="YnixlngbY6KtIJRZPj8p-105">
          <mxGeometry x="0.7002" relative="1" as="geometry">
            <mxPoint x="2" y="-10" as="offset" />
          </mxGeometry>
        </mxCell>
        <mxCell id="YnixlngbY6KtIJRZPj8p-107" value="&lt;span style=&quot;border-bottom: 1px dotted&quot;&gt;emp_id&lt;/span&gt;" style="ellipse;whiteSpace=wrap;html=1;align=center;fillColor=#ffcc99;strokeColor=#36393d;" vertex="1" parent="1">
          <mxGeometry x="45" y="510" width="50" height="40" as="geometry" />
        </mxCell>
        <mxCell id="YnixlngbY6KtIJRZPj8p-109" value="" style="endArrow=none;html=1;rounded=0;" edge="1" parent="1" source="YnixlngbY6KtIJRZPj8p-114" target="YnixlngbY6KtIJRZPj8p-46">
          <mxGeometry relative="1" as="geometry">
            <mxPoint x="287.50119287866346" y="276.76337266502344" as="sourcePoint" />
            <mxPoint x="480" y="270" as="targetPoint" />
          </mxGeometry>
        </mxCell>
        <mxCell id="YnixlngbY6KtIJRZPj8p-110" value="" style="endArrow=none;html=1;rounded=0;" edge="1" parent="1" source="YnixlngbY6KtIJRZPj8p-107" target="oXz6qhzBlNLDAhxjQmUj-1">
          <mxGeometry relative="1" as="geometry">
            <mxPoint x="301" y="307" as="sourcePoint" />
            <mxPoint x="268" y="330" as="targetPoint" />
          </mxGeometry>
        </mxCell>
        <mxCell id="YnixlngbY6KtIJRZPj8p-111" value="" style="endArrow=none;html=1;rounded=0;" edge="1" parent="1" source="YnixlngbY6KtIJRZPj8p-115" target="YnixlngbY6KtIJRZPj8p-53">
          <mxGeometry relative="1" as="geometry">
            <mxPoint x="645.3988543884582" y="92.4140588873097" as="sourcePoint" />
            <mxPoint x="268" y="290" as="targetPoint" />
          </mxGeometry>
        </mxCell>
        <mxCell id="YnixlngbY6KtIJRZPj8p-113" value="" style="endArrow=none;html=1;rounded=0;" edge="1" parent="1" source="YnixlngbY6KtIJRZPj8p-116" target="YnixlngbY6KtIJRZPj8p-46">
          <mxGeometry relative="1" as="geometry">
            <mxPoint x="421.85778312979187" y="277.56572474602956" as="sourcePoint" />
            <mxPoint x="330" y="320" as="targetPoint" />
          </mxGeometry>
        </mxCell>
        <mxCell id="YnixlngbY6KtIJRZPj8p-114" value="&lt;span style=&quot;border-bottom: 1px dotted&quot;&gt;per_id&lt;/span&gt;" style="ellipse;whiteSpace=wrap;html=1;align=center;fillColor=#ffcc99;strokeColor=#36393d;" vertex="1" parent="1">
          <mxGeometry x="280" y="240" width="50" height="40" as="geometry" />
        </mxCell>
        <mxCell id="YnixlngbY6KtIJRZPj8p-115" value="&lt;span style=&quot;border-bottom: 1px dotted&quot;&gt;per_id&lt;/span&gt;" style="ellipse;whiteSpace=wrap;html=1;align=center;fillColor=#ffcc99;strokeColor=#36393d;" vertex="1" parent="1">
          <mxGeometry x="630" y="50" width="50" height="40" as="geometry" />
        </mxCell>
        <mxCell id="YnixlngbY6KtIJRZPj8p-116" value="&lt;span style=&quot;border-bottom: 1px dotted&quot;&gt;des_id&lt;/span&gt;" style="ellipse;whiteSpace=wrap;html=1;align=center;fillColor=#ffcc99;strokeColor=#36393d;" vertex="1" parent="1">
          <mxGeometry x="325" y="270" width="50" height="40" as="geometry" />
        </mxCell>
        <mxCell id="YnixlngbY6KtIJRZPj8p-123" value="&lt;span style=&quot;border-bottom: 1px dotted&quot;&gt;med_id&lt;/span&gt;" style="ellipse;whiteSpace=wrap;html=1;align=center;fillColor=#ffcc99;strokeColor=#36393d;" vertex="1" parent="1">
          <mxGeometry x="630" y="440" width="50" height="40" as="geometry" />
        </mxCell>
        <mxCell id="YnixlngbY6KtIJRZPj8p-124" value="" style="endArrow=none;html=1;rounded=0;" edge="1" parent="1" source="YnixlngbY6KtIJRZPj8p-79" target="YnixlngbY6KtIJRZPj8p-123">
          <mxGeometry relative="1" as="geometry">
            <mxPoint x="370" y="400" as="sourcePoint" />
            <mxPoint x="530" y="400" as="targetPoint" />
          </mxGeometry>
        </mxCell>
        <mxCell id="YnixlngbY6KtIJRZPj8p-127" value="&lt;span style=&quot;border-bottom: 1px dotted&quot;&gt;hor_id&lt;/span&gt;" style="ellipse;whiteSpace=wrap;html=1;align=center;fillColor=#ffcc99;strokeColor=#36393d;" vertex="1" parent="1">
          <mxGeometry x="70" y="470" width="50" height="40" as="geometry" />
        </mxCell>
        <mxCell id="YnixlngbY6KtIJRZPj8p-128" value="" style="endArrow=none;html=1;rounded=0;" edge="1" parent="1" source="YnixlngbY6KtIJRZPj8p-127" target="oXz6qhzBlNLDAhxjQmUj-1">
          <mxGeometry relative="1" as="geometry">
            <mxPoint x="296" y="486" as="sourcePoint" />
            <mxPoint x="330" y="520" as="targetPoint" />
          </mxGeometry>
        </mxCell>
        <mxCell id="YnixlngbY6KtIJRZPj8p-129" value="" style="endArrow=none;html=1;rounded=0;" edge="1" parent="1" source="YnixlngbY6KtIJRZPj8p-97" target="oXz6qhzBlNLDAhxjQmUj-1">
          <mxGeometry relative="1" as="geometry">
            <mxPoint x="290" y="340" as="sourcePoint" />
            <mxPoint x="450" y="340" as="targetPoint" />
          </mxGeometry>
        </mxCell>
        <mxCell id="YnixlngbY6KtIJRZPj8p-131" value="1" style="edgeLabel;html=1;align=center;verticalAlign=middle;resizable=0;points=[];" vertex="1" connectable="0" parent="YnixlngbY6KtIJRZPj8p-129">
          <mxGeometry x="0.8861" y="-2" relative="1" as="geometry">
            <mxPoint x="-14" y="1" as="offset" />
          </mxGeometry>
        </mxCell>
        <mxCell id="YnixlngbY6KtIJRZPj8p-130" value="" style="endArrow=none;html=1;rounded=0;" edge="1" parent="1" source="YnixlngbY6KtIJRZPj8p-97" target="YnixlngbY6KtIJRZPj8p-53">
          <mxGeometry relative="1" as="geometry">
            <mxPoint x="399" y="363" as="sourcePoint" />
            <mxPoint x="257" y="530" as="targetPoint" />
          </mxGeometry>
        </mxCell>
        <mxCell id="YnixlngbY6KtIJRZPj8p-132" value="N" style="edgeLabel;html=1;align=center;verticalAlign=middle;resizable=0;points=[];" vertex="1" connectable="0" parent="YnixlngbY6KtIJRZPj8p-130">
          <mxGeometry x="0.8546" y="-3" relative="1" as="geometry">
            <mxPoint x="15" y="-4" as="offset" />
          </mxGeometry>
        </mxCell>
        <mxCell id="YnixlngbY6KtIJRZPj8p-133" value="&lt;span style=&quot;border-bottom: 1px dotted&quot;&gt;med_id&lt;/span&gt;" style="ellipse;whiteSpace=wrap;html=1;align=center;fillColor=#ffcc99;strokeColor=#36393d;" vertex="1" parent="1">
          <mxGeometry x="680" y="100" width="50" height="40" as="geometry" />
        </mxCell>
        <mxCell id="YnixlngbY6KtIJRZPj8p-134" value="" style="endArrow=none;html=1;rounded=0;" edge="1" parent="1" source="YnixlngbY6KtIJRZPj8p-133" target="YnixlngbY6KtIJRZPj8p-53">
          <mxGeometry relative="1" as="geometry">
            <mxPoint x="648" y="94" as="sourcePoint" />
            <mxPoint x="604" y="130" as="targetPoint" />
          </mxGeometry>
        </mxCell>
      </root>
    </mxGraphModel>
  </diagram>
</mxfile>
